<svg xmlns="http://www.w3.org/2000/svg" width="51" height="52" viewBox="0 0 51 52"><g><g><g><g><path fill="#fff" d="M31.295 51H5.74L9.7 37.634h17.884z"/><path fill="none" stroke="#323c50" stroke-linecap="round" stroke-linejoin="round" stroke-miterlimit="20" stroke-width="1.5" d="M31.295 51v0H5.74v0L9.7 37.634v0h17.884v0z"/></g><g><g><path fill="none" stroke="#323c50" stroke-linecap="round" stroke-linejoin="round" stroke-miterlimit="20" stroke-width="1.5" d="M15.977 51a7.454 7.454 0 0 1-7.453-7.454v-8.79 0h20.234v8.79A7.454 7.454 0 0 1 21.305 51z"/></g><g><path fill="#fff" d="M35.964 23.539c-.235-.741-.72-1.452-1.446-1.724a1.576 1.576 0 0 0-.791-.067C34.349 17.24 35 3.98 21.692 1.288c-.985-.2-1.993-.288-2.999-.288-1.005 0-2.012.088-2.998.288C2.336 3.991 3.042 17.339 3.667 21.798c-.327-.097-.69-.1-1.009.017-.727.272-1.21.983-1.445 1.724-.377 1.188-.22 2.496.21 3.667.43 1.171 1.118 2.228 1.819 3.258.685 1.007 1.419 2.028 2.455 2.666-.04-.402 2.287 4.747 4.701 6.886 2.062 1.828 4.246 3.744 4.782 4.147.663.497 1.855.537 2.68.493a16.035 16.035 0 0 1 1.667 0c.824.044 2.016.004 2.679-.493.536-.403 2.72-2.32 4.782-4.147a15.69 15.69 0 0 0 4.508-6.899c1.027-.637 1.757-1.652 2.438-2.653.702-1.03 1.39-2.087 1.82-3.258.43-1.17.586-2.479.21-3.667z"/><path fill="none" stroke="#323c50" stroke-linecap="round" stroke-linejoin="round" stroke-miterlimit="20" stroke-width="1.5" d="M35.964 23.539c-.235-.741-.72-1.452-1.446-1.724a1.576 1.576 0 0 0-.791-.067C34.349 17.24 35 3.98 21.692 1.288c-.985-.2-1.993-.288-2.999-.288-1.005 0-2.012.088-2.998.288C2.336 3.991 3.042 17.339 3.667 21.798c-.327-.097-.69-.1-1.009.017-.727.272-1.21.983-1.445 1.724-.377 1.188-.22 2.496.21 3.667.43 1.171 1.118 2.228 1.819 3.258.685 1.007 1.419 2.028 2.455 2.666-.04-.402 2.287 4.747 4.701 6.886 2.062 1.828 4.246 3.744 4.782 4.147.663.497 1.855.537 2.68.493a16.035 16.035 0 0 1 1.667 0c.824.044 2.016.004 2.679-.493.536-.403 2.72-2.32 4.782-4.147a15.69 15.69 0 0 0 4.508-6.899c1.027-.637 1.757-1.652 2.438-2.653.702-1.03 1.39-2.087 1.82-3.258.43-1.17.586-2.479.21-3.667z"/></g></g></g><g><g><path fill="#fff" d="M40.949 29.9V20.74h9.158v9.158z"/><path fill="none" stroke="#c80713" stroke-linecap="round" stroke-linejoin="round" stroke-miterlimit="20" stroke-width="1.5" d="M40.949 29.9v0-9.159 0h9.158v9.158z"/></g><g><g><path fill="#fff" d="M40.949 13.934V4.776h9.158v9.158z"/><path fill="none" stroke="#323c50" stroke-linecap="round" stroke-linejoin="round" stroke-miterlimit="20" stroke-width="1.5" d="M40.949 13.934v0-9.158 0h9.158v9.158z"/></g><g><path fill="#fff" d="M40.949 45.864v-9.158h9.158v9.158z"/><path fill="none" stroke="#323c50" stroke-linecap="round" stroke-linejoin="round" stroke-miterlimit="20" stroke-width="1.5" d="M40.949 45.864v0-9.158 0h9.158v9.158z"/></g></g></g><g><path fill="#fff" d="M43.524 25.53l1.578 1.615 2.569-3.743"/><path fill="none" stroke="#c80713" stroke-linecap="round" stroke-linejoin="round" stroke-miterlimit="20" stroke-width="1.5" d="M43.524 25.53v0l1.578 1.615v0l2.569-3.743v0"/></g></g></g></svg>