<svg xmlns="http://www.w3.org/2000/svg" width="53" height="52" viewBox="0 0 53 52"><g><g><g><path fill="#fff" d="M1 51V1h33.523v50z"/><path fill="none" stroke="#323c50" stroke-linecap="round" stroke-linejoin="round" stroke-miterlimit="20" stroke-width="1.5" d="M1 51v0V1v0h33.523v50z"/></g><g><g><path fill="none" stroke="#c80713" stroke-linecap="round" stroke-linejoin="round" stroke-miterlimit="20" stroke-width="1.5" d="M6.265 38.879h22.993"/></g><g><path fill="none" stroke="#c80713" stroke-linecap="round" stroke-linejoin="round" stroke-miterlimit="20" stroke-width="1.5" d="M6.265 29.788h22.993"/></g><g><path fill="none" stroke="#c80713" stroke-linecap="round" stroke-linejoin="round" stroke-miterlimit="20" stroke-width="1.5" d="M6.265 21.455h22.993"/></g><g><path fill="none" stroke="#c80713" stroke-linecap="round" stroke-linejoin="round" stroke-miterlimit="20" stroke-width="1.5" d="M6.265 13.121h22.993"/></g></g><g><g><g><path fill="#fff" d="M42.414 30.672v-9.344h9.344v9.344z"/><path fill="none" stroke="#c80713" stroke-linecap="round" stroke-linejoin="round" stroke-miterlimit="20" stroke-width="1.5" d="M42.414 30.672v0-9.344 0h9.344v9.344z"/></g><g><g><path fill="#fff" d="M42.414 14.384V5.04h9.344v9.344z"/><path fill="none" stroke="#323c50" stroke-linecap="round" stroke-linejoin="round" stroke-miterlimit="20" stroke-width="1.5" d="M42.414 14.384v0V5.04v0h9.344v9.344z"/></g><g><path fill="#fff" d="M42.414 46.96v-9.344h9.344v9.344z"/><path fill="none" stroke="#323c50" stroke-linecap="round" stroke-linejoin="round" stroke-miterlimit="20" stroke-width="1.5" d="M42.414 46.96v0-9.344 0h9.344v9.344z"/></g></g></g><g><path fill="#fff" d="M45.041 26.215l1.61 1.647 2.622-3.82"/><path fill="none" stroke="#c80713" stroke-linecap="round" stroke-linejoin="round" stroke-miterlimit="20" stroke-width="1.5" d="M45.041 26.215v0l1.61 1.647v0l2.622-3.82v0"/></g></g></g></g></svg>