<svg xmlns="http://www.w3.org/2000/svg" width="54" height="52" viewBox="0 0 54 52"><g><g><g><path fill="none" stroke="#323c50" stroke-linecap="round" stroke-linejoin="round" stroke-miterlimit="20" stroke-width="1.5" d="M12.5 7.333v0V1v0h27.833v6.333"/></g><g><path fill="#fff" d="M6.876 51A5.876 5.876 0 0 1 1 45.124V14.127A5.877 5.877 0 0 1 6.876 8.25h39.747a5.876 5.876 0 0 1 5.877 5.877v30.997A5.876 5.876 0 0 1 46.623 51z"/><path fill="none" stroke="#323c50" stroke-linecap="round" stroke-linejoin="round" stroke-miterlimit="20" stroke-width="1.5" d="M6.876 51A5.876 5.876 0 0 1 1 45.124V14.127A5.877 5.877 0 0 1 6.876 8.25h39.747a5.876 5.876 0 0 1 5.877 5.877v30.997A5.876 5.876 0 0 1 46.623 51z"/></g><g><path fill="none" stroke="#323c50" stroke-linecap="round" stroke-linejoin="round" stroke-miterlimit="20" stroke-width="1.5" d="M1.452 29.445h50.534"/></g><g><g><path fill="none" stroke="#c80713" stroke-linecap="round" stroke-linejoin="round" stroke-miterlimit="20" stroke-width="1.5" d="M12.682 39.577v0V8.333v0h8v31.244z"/></g><g><path fill="#fff" d="M9.333 33.917v-8.25h14.948v8.25z"/><path fill="none" stroke="#c80713" stroke-linecap="round" stroke-linejoin="round" stroke-miterlimit="20" stroke-width="1.5" d="M9.333 33.917v0-8.25 0h14.948v8.25z"/></g></g><g><g><path fill="none" stroke="#c80713" stroke-linecap="round" stroke-linejoin="round" stroke-miterlimit="20" stroke-width="1.5" d="M32.043 39.577v0V8.333v0h8v31.244z"/></g><g><path fill="#fff" d="M28.694 33.917v-8.25h14.948v8.25z"/><path fill="none" stroke="#c80713" stroke-linecap="round" stroke-linejoin="round" stroke-miterlimit="20" stroke-width="1.5" d="M28.694 33.917v0-8.25 0h14.948v8.25z"/></g></g></g></g></svg>