<svg xmlns="http://www.w3.org/2000/svg" width="216" height="36" viewBox="0 0 216 36"><g><g><g><g><path fill="#fff" d="M52.194 28.043a.52.52 0 0 1-.075.283.572.572 0 0 1-.291.194c-.175.059-.355.1-.538.125-.274.04-.55.057-.828.052a5.304 5.304 0 0 1-.858-.052 2.986 2.986 0 0 1-.53-.125.561.561 0 0 1-.284-.194.47.47 0 0 1-.082-.283V16.325H36.696v11.718c0 .1-.028.198-.082.283a.542.542 0 0 1-.29.194c-.176.059-.355.1-.538.125-.56.07-1.127.07-1.687 0a2.896 2.896 0 0 1-.545-.125.586.586 0 0 1-.29-.194.526.526 0 0 1-.083-.283V2.696c-.001-.1.027-.2.082-.284a.514.514 0 0 1 .291-.194c.177-.06.36-.1.545-.124.278-.032.557-.047.836-.045.284-.007.569.008.85.045.183.028.362.07.538.124.115.033.217.1.291.194a.526.526 0 0 1 .082.284v10.573h12.017V2.696c-.001-.1.027-.2.082-.284a.52.52 0 0 1 .284-.194c.172-.058.35-.1.53-.124.284-.034.571-.049.858-.045a5.31 5.31 0 0 1 .828.045c.182.028.362.07.538.124a.572.572 0 0 1 .288.194.594.594 0 0 1 .075.284v25.347"/></g><g><path fill="#fff" d="M71.557 9.488a4.91 4.91 0 0 1-.314 1.776 3.683 3.683 0 0 1-.995 1.418 4.69 4.69 0 0 1-1.68.94 7.687 7.687 0 0 1-2.402.337H62.74V5.062h2.955c.692 0 1.254.022 1.687.067.391.031.779.099 1.157.202 1.077.313 1.858.82 2.321 1.537.463.717.694 1.59.694 2.62zm5.282 18.545a1.627 1.627 0 0 0-.082-.463c-.053-.194-.18-.532-.366-1.03l-2.364-5.814a23.424 23.424 0 0 0-.813-1.799c-.253-.49-.545-.959-.871-1.403a6.108 6.108 0 0 0-.995-1.053 4.906 4.906 0 0 0-1.187-.724 10.552 10.552 0 0 0 2.105-.995 6.793 6.793 0 0 0 1.617-1.395c.455-.551.804-1.181 1.03-1.859.25-.768.37-1.573.358-2.38a7.34 7.34 0 0 0-.403-2.489 5.799 5.799 0 0 0-1.194-2.015 6.486 6.486 0 0 0-1.963-1.448 9.951 9.951 0 0 0-2.71-.836c-.35-.037-.753-.074-1.193-.112-.44-.037-.993-.052-1.657-.052h-5.613a1.45 1.45 0 0 0-.888.313c-.284.217-.418.583-.418 1.113v24.45c-.004.102.025.201.082.284.072.093.171.16.284.194.174.059.354.1.537.125.282.04.566.057.85.052a5.35 5.35 0 0 0 .844-.052c.18-.024.358-.066.53-.125a.607.607 0 0 0 .291-.194.475.475 0 0 0 .09-.283V16.795h2.343a5.367 5.367 0 0 1 2.063.37 4.61 4.61 0 0 1 1.485.996c.438.454.808.97 1.097 1.53.306.59.597 1.239.881 1.948l2.433 6.22a1.4 1.4 0 0 0 .194.41c.08.11.189.195.314.249.174.07.357.115.545.134.289.03.58.043.87.037.403 0 .73-.014.978-.037a2.21 2.21 0 0 0 .575-.124.446.446 0 0 0 .261-.202.587.587 0 0 0 .06-.283z"/></g><g><path fill="#fff" d="M110.53 2.144c.003.208-.012.416-.045.622-.02.126-.05.251-.09.373a.373.373 0 0 1-.134.194.338.338 0 0 1-.201.052.962.962 0 0 1-.359-.09c-.141-.067-.313-.124-.522-.208a5.155 5.155 0 0 0-.724-.202 4.62 4.62 0 0 0-.97-.09c-.442-.015-.88.07-1.284.25-.354.164-.653.428-.858.76-.24.417-.4.876-.47 1.351a11.754 11.754 0 0 0-.142 2.008v2.003h4.105a.475.475 0 0 1 .276.067.7.7 0 0 1 .201.249c.07.138.119.287.142.44.035.215.053.432.052.65 0 .497-.06.85-.186 1.067a.54.54 0 0 1-.485.32h-4.105v16.105a.412.412 0 0 1-.082.269.584.584 0 0 1-.277.194 1.846 1.846 0 0 1-.515.124 8.31 8.31 0 0 1-.82.037 6.265 6.265 0 0 1-.814-.037 1.906 1.906 0 0 1-.523-.124.671.671 0 0 1-.276-.194.46.46 0 0 1-.082-.269V11.958h-2.59a.51.51 0 0 1-.485-.32c-.112-.224-.164-.575-.164-1.068-.001-.217.011-.434.037-.65.02-.151.061-.3.125-.44a.483.483 0 0 1 .201-.248.516.516 0 0 1 .284-.068h2.59V7.271c0-1.284.124-2.38.358-3.299.234-.918.604-1.672 1.097-2.254A4.353 4.353 0 0 1 104.641.42a7.476 7.476 0 0 1 2.62-.417c.466-.002.93.043 1.388.134.356.065.705.16 1.045.283.176.066.34.159.485.277.089.093.16.202.21.32.057.152.095.31.111.47.015.18.03.404.03.658"/></g><g><path fill="#fff" d="M122.902 19.698v3.896c-.836.926-1.627 1.612-2.38 2.06a4.727 4.727 0 0 1-2.456.672c-1.09 0-1.94-.276-2.545-.843-.605-.568-.911-1.329-.904-2.277-.01-.51.097-1.016.314-1.478a2.79 2.79 0 0 1 .995-1.104 4.908 4.908 0 0 1 1.694-.694 10.37 10.37 0 0 1 2.404-.232zm3.344 8.38V15.694a10.607 10.607 0 0 0-.388-3 5.204 5.204 0 0 0-1.244-2.157c-.567-.575-1.321-1.015-2.247-1.314-.925-.298-2.045-.448-3.366-.448a10.967 10.967 0 0 0-2.097.194c-.65.117-1.291.28-1.918.486-.532.176-1.048.395-1.545.654-.342.164-.661.374-.948.622-.168.152-.29.349-.351.567-.055.263-.077.53-.067.799-.004.19.009.38.037.567.022.146.068.287.135.418a.78.78 0 0 0 .216.249.498.498 0 0 0 .284.074c.164 0 .413-.09.746-.29.333-.202.746-.419 1.244-.658a11.133 11.133 0 0 1 1.731-.649 7.62 7.62 0 0 1 2.232-.298 5.98 5.98 0 0 1 1.963.276c.493.16.938.442 1.291.82.35.384.598.848.724 1.352.158.614.233 1.246.224 1.88v1.431h-2.53a17.832 17.832 0 0 0-3.856.38c-1.142.247-2.112.628-2.896 1.135a5.205 5.205 0 0 0-1.821 1.896c-.418.761-.635 1.657-.635 2.694a5.82 5.82 0 0 0 .463 2.364c.29.673.73 1.273 1.284 1.754a5.68 5.68 0 0 0 1.998 1.082 8.49 8.49 0 0 0 2.627.38 7.09 7.09 0 0 0 3.127-.716 9.144 9.144 0 0 0 2.69-1.99v1.83a.438.438 0 0 0 .141.367c.135.097.291.161.456.186.28.048.566.068.85.06.28.005.56-.015.836-.06.162-.029.314-.092.448-.186a.41.41 0 0 0 .164-.366z"/></g><g><path fill="#fff" d="M145.654 25.266c0 .231-.007.433-.022.605a2.8 2.8 0 0 1-.068.425 1.637 1.637 0 0 1-.124.306c-.09.142-.198.273-.32.388-.271.238-.563.45-.872.635-.434.265-.892.49-1.368.671-.54.205-1.097.364-1.664.478a8.92 8.92 0 0 1-1.859.187c-1.32 0-2.488-.217-3.508-.657a6.572 6.572 0 0 1-2.56-1.903 8.83 8.83 0 0 1-1.575-3.083c-.358-1.224-.537-2.62-.537-4.217 0-1.806.221-3.359.664-4.657.44-1.306 1.045-2.364 1.814-3.195a7.113 7.113 0 0 1 2.717-1.85 9.244 9.244 0 0 1 3.373-.598 8.094 8.094 0 0 1 1.71.164 8.788 8.788 0 0 1 1.515.426c.435.16.852.365 1.244.612.28.17.542.368.783.59.123.119.236.249.336.388.065.105.118.218.157.335.042.144.067.292.074.44.015.165.023.367.023.613 0 .53-.06.903-.18 1.112-.119.209-.275.313-.455.313-.201 0-.432-.112-.701-.335a10.81 10.81 0 0 0-1.008-.74 7.575 7.575 0 0 0-1.477-.746 5.688 5.688 0 0 0-2.053-.336c-1.62 0-2.86.622-3.724 1.866-.864 1.244-1.297 3.05-1.3 5.419-.015 1.047.1 2.092.344 3.11.18.8.515 1.559.985 2.231.41.578.963 1.039 1.605 1.336a5.1 5.1 0 0 0 2.172.44 5.338 5.338 0 0 0 2.038-.365 9.029 9.029 0 0 0 1.522-.806c.426-.299.791-.56 1.082-.799.292-.238.515-.358.68-.358a.392.392 0 0 1 .248.082c.082.075.141.17.172.276.057.16.092.328.105.498.023.233.033.467.03.702"/></g><g><path fill="#fff" d="M159.693 26.714c.002.315-.025.63-.082.94a1.04 1.04 0 0 1-.249.508 1.6 1.6 0 0 1-.485.306c-.242.1-.491.18-.746.239-.284.052-.575.112-.889.15a7.953 7.953 0 0 1-.94.059 7.187 7.187 0 0 1-2.448-.373 3.938 3.938 0 0 1-1.672-1.142 4.635 4.635 0 0 1-.948-1.94 11.185 11.185 0 0 1-.298-2.77V11.958h-2.575a.54.54 0 0 1-.486-.32c-.124-.225-.186-.575-.186-1.068 0-.217.017-.435.052-.65.026-.151.071-.3.134-.44a.508.508 0 0 1 .508-.316h2.553V4.801a.433.433 0 0 1 .074-.269.547.547 0 0 1 .262-.209c.164-.077.341-.122.522-.134.27-.033.542-.048.814-.045.279-.004.558.011.835.045.179.012.354.057.515.134a.58.58 0 0 1 .262.209c.052.08.08.173.082.269v4.366h4.717a.517.517 0 0 1 .284.067.65.65 0 0 1 .216.249c.067.138.11.287.124.44.033.215.048.432.045.65-.007.497-.06.85-.187 1.067a.54.54 0 0 1-.485.32H154.3v10.246c0 1.261.187 2.215.56 2.861.373.642 1.045.97 2.015.97a3.59 3.59 0 0 0 .836-.09c.24-.066.463-.124.65-.193.186-.07.358-.135.497-.194a.811.811 0 0 1 .366-.097c.068.002.134.02.194.052.07.045.12.114.142.194.045.125.075.256.09.388.032.202.047.407.044.612"/></g><g><path fill="#fff" d="M177.27 18.902c.01.982-.098 1.962-.32 2.918a6.528 6.528 0 0 1-1.023 2.284 4.727 4.727 0 0 1-1.777 1.493c-.716.35-1.574.53-2.552.53-1.07 0-1.978-.194-2.687-.582a4.701 4.701 0 0 1-1.732-1.575 6.673 6.673 0 0 1-.91-2.314 13.745 13.745 0 0 1-.276-2.836c-.013-.976.1-1.949.335-2.896a6.69 6.69 0 0 1 1.03-2.301 4.694 4.694 0 0 1 1.762-1.5c.716-.351 1.565-.53 2.56-.53 1.077 0 1.97.194 2.694.582a4.498 4.498 0 0 1 1.717 1.582c.44.716.748 1.505.91 2.329.184.926.274 1.869.27 2.814zm3.553-.224c.019-1.4-.17-2.795-.56-4.14a8.377 8.377 0 0 0-1.687-3.12 7.18 7.18 0 0 0-2.799-1.962c-1.124-.448-2.44-.672-3.948-.672-1.567 0-2.933.246-4.105.754a7.812 7.812 0 0 0-2.926 2.114 8.957 8.957 0 0 0-1.754 3.254 13.974 13.974 0 0 0-.582 4.135c-.02 1.408.163 2.81.545 4.165a8.318 8.318 0 0 0 1.68 3.12 7.258 7.258 0 0 0 2.798 1.963c1.127.448 2.44.672 3.956.672 1.548.002 2.91-.254 4.09-.77a8.085 8.085 0 0 0 2.933-2.126 9.18 9.18 0 0 0 1.77-3.262c.405-1.337.604-2.728.589-4.125z"/></g><g><path fill="#fff" d="M196.526 10.899c-.007.298-.007.552-.022.753-.012.164-.04.327-.082.485a.78.78 0 0 1-.157.262.34.34 0 0 1-.248.09 1.13 1.13 0 0 1-.396-.09 6.298 6.298 0 0 0-.53-.18c-.194-.054-.418-.124-.664-.179a3.803 3.803 0 0 0-.799-.082c-.342.004-.68.075-.995.21a3.887 3.887 0 0 0-1.03.671 8.72 8.72 0 0 0-1.135 1.244 27.66 27.66 0 0 0-1.306 1.896v12.086a.454.454 0 0 1-.074.269.695.695 0 0 1-.269.194 1.788 1.788 0 0 1-.507.124 8.465 8.465 0 0 1-.844.037 6.337 6.337 0 0 1-.813-.037 1.98 1.98 0 0 1-.523-.124.532.532 0 0 1-.261-.194.458.458 0 0 1-.075-.269V9.697a.525.525 0 0 1 .067-.276.51.51 0 0 1 .232-.202 1.35 1.35 0 0 1 .47-.124 9.632 9.632 0 0 1 1.5 0c.16.012.318.054.463.124a.623.623 0 0 1 .231.202c.054.082.08.178.075.276v2.672c.422-.636.896-1.236 1.416-1.794a7.84 7.84 0 0 1 1.253-1.09 3.87 3.87 0 0 1 1.172-.552 4.468 4.468 0 0 1 1.172-.15 6.048 6.048 0 0 1 1.97.33c.15.043.29.111.419.2a.613.613 0 0 1 .164.195c.029.075.054.153.074.231.02.139.033.278.038.418.007.187.014.433.014.746"/></g><g><path fill="#fff" d="M208.946 28.573l-2.45 6.757c-.082.216-.292.38-.622.497-.331.117-.836.172-1.515.172a5.303 5.303 0 0 1-.859-.052 1.18 1.18 0 0 1-.497-.172.438.438 0 0 1-.195-.328 1.055 1.055 0 0 1 .098-.486l2.537-6.388a.963.963 0 0 1-.35-.27.897.897 0 0 1-.225-.387l-6.557-17.547a1.95 1.95 0 0 1-.165-.672.507.507 0 0 1 .165-.388.994.994 0 0 1 .53-.194c.326-.041.655-.058.985-.053.403 0 .724.015.955.03.188.013.374.051.552.112.124.043.23.128.299.24.074.134.139.273.194.417l5.24 14.733h.059l5.06-14.815c.083-.261.187-.425.299-.498.159-.095.338-.151.522-.164.33-.042.663-.06.996-.052.314-.005.628.012.94.052.194.014.38.081.537.194.114.097.177.24.172.388a1.99 1.99 0 0 1-.124.612l-6.593 18.264z"/></g><g><path fill="#fff" d="M0 13.093V1.733h11.36v11.36z"/></g><g><path fill="#c80000" d="M15.48 13.093V1.733h11.36v11.36z"/></g><g><path fill="#c80000" d="M81.705 20.907V9.54h11.367v11.367z"/></g><g><path fill="#fff" d="M0 28.58V17.213h11.36V28.58z"/></g><g><path fill="#fff" d="M15.48 28.58V17.213h11.36V28.58z"/></g></g></g></g></svg>