<svg xmlns="http://www.w3.org/2000/svg" width="180" height="30" viewBox="0 0 180 30"><g><g><g><g><path fill="#fff" d="M43.495 23.369a.434.434 0 0 1-.063.236.477.477 0 0 1-.242.162 2.448 2.448 0 0 1-.448.104c-.229.032-.46.047-.69.043a4.42 4.42 0 0 1-.716-.043 2.488 2.488 0 0 1-.441-.104.467.467 0 0 1-.237-.162.39.39 0 0 1-.068-.236v-9.765H30.58v9.765a.439.439 0 0 1-.068.236.452.452 0 0 1-.243.162 2.447 2.447 0 0 1-.447.104 5.694 5.694 0 0 1-1.406 0 2.413 2.413 0 0 1-.454-.104.488.488 0 0 1-.243-.162.438.438 0 0 1-.068-.236V2.247a.423.423 0 0 1 .068-.237.428.428 0 0 1 .243-.161c.147-.05.3-.085.454-.104.231-.027.464-.04.697-.037a4.59 4.59 0 0 1 .709.037c.151.024.3.058.447.104.096.027.181.083.243.161.045.07.069.153.068.237v8.81h10.014v-8.81a.422.422 0 0 1 .069-.237.434.434 0 0 1 .236-.161 2.43 2.43 0 0 1 .442-.104c.237-.028.476-.04.715-.037.23-.006.461.006.69.037.152.023.302.058.448.104.095.027.18.084.24.161.04.073.062.154.063.237v21.122"/></g><g><path fill="#fff" d="M59.63 7.907a4.092 4.092 0 0 1-.26 1.48c-.179.454-.463.86-.83 1.182a3.909 3.909 0 0 1-1.4.783 6.407 6.407 0 0 1-2.002.28h-2.855V4.218h2.463c.577 0 1.045.019 1.406.056.326.026.648.082.964.168.898.261 1.549.684 1.934 1.281.386.598.579 1.325.579 2.184zm4.402 15.454a1.355 1.355 0 0 0-.068-.386c-.044-.162-.15-.444-.305-.858l-1.97-4.846a19.545 19.545 0 0 0-.677-1.499 8.809 8.809 0 0 0-.726-1.169 5.088 5.088 0 0 0-.83-.877c-.299-.247-.632-.45-.988-.603a8.795 8.795 0 0 0 1.754-.83 5.664 5.664 0 0 0 1.347-1.163c.38-.458.67-.983.859-1.548a6.13 6.13 0 0 0 .298-1.984 6.117 6.117 0 0 0-.336-2.074 4.831 4.831 0 0 0-.995-1.679 5.405 5.405 0 0 0-1.636-1.207 8.294 8.294 0 0 0-2.257-.696 47.683 47.683 0 0 0-.996-.093 17.046 17.046 0 0 0-1.38-.044h-4.678c-.269.002-.529.094-.74.261-.236.18-.348.485-.348.927v20.376a.39.39 0 0 0 .068.236c.06.077.143.134.237.162.145.048.295.083.447.104.235.033.472.047.71.043.235.004.47-.01.702-.043.15-.02.299-.055.442-.104a.506.506 0 0 0 .243-.162.396.396 0 0 0 .074-.236v-9.373h1.953a4.473 4.473 0 0 1 1.719.309c.463.193.883.474 1.238.829.365.378.673.808.914 1.275.255.491.498 1.032.734 1.623l2.028 5.183c.034.122.089.238.161.343a.635.635 0 0 0 .261.207c.146.058.299.096.454.112.241.025.484.036.726.03.336 0 .608-.012.815-.03.163-.013.325-.048.479-.104a.372.372 0 0 0 .218-.168.489.489 0 0 0 .05-.236z"/></g><g><path fill="#fff" d="M92.108 1.786c.003.174-.01.347-.037.519-.016.105-.041.21-.075.31a.31.31 0 0 1-.112.162.282.282 0 0 1-.168.044.802.802 0 0 1-.298-.075c-.118-.056-.261-.103-.436-.174a4.297 4.297 0 0 0-.603-.168 3.848 3.848 0 0 0-.809-.074 2.415 2.415 0 0 0-1.07.207 1.668 1.668 0 0 0-.714.634c-.2.347-.334.73-.392 1.126a9.786 9.786 0 0 0-.119 1.673v1.67h3.421a.396.396 0 0 1 .23.055.584.584 0 0 1 .168.207c.06.116.099.24.119.367.029.18.044.36.043.541 0 .415-.05.71-.155.89a.45.45 0 0 1-.405.267h-3.42v13.42c.004.08-.02.16-.069.224a.487.487 0 0 1-.23.162c-.137.055-.282.09-.43.104a6.926 6.926 0 0 1-.683.03 5.22 5.22 0 0 1-.678-.03 1.588 1.588 0 0 1-.436-.104.56.56 0 0 1-.23-.162.382.382 0 0 1-.068-.223V9.965h-2.159a.425.425 0 0 1-.404-.267c-.093-.187-.137-.48-.137-.89 0-.18.01-.361.031-.54.017-.127.052-.251.104-.368.03-.086.09-.159.168-.207a.43.43 0 0 1 .236-.056h2.159V6.059c0-1.07.103-1.984.298-2.749.195-.765.504-1.393.914-1.878.41-.49.94-.863 1.539-1.082A6.23 6.23 0 0 1 89.384 0c.388 0 .776.037 1.157.112.296.054.587.133.87.237.147.054.283.132.405.23a.867.867 0 0 1 .174.267c.049.126.08.258.093.392.013.15.025.336.025.547"/></g><g><path fill="#fff" d="M102.418 16.415v3.247c-.696.771-1.355 1.343-1.984 1.717a3.94 3.94 0 0 1-2.046.56c-.908 0-1.617-.23-2.12-.704-.505-.472-.76-1.107-.753-1.897-.01-.425.08-.846.26-1.231.189-.376.476-.694.83-.92.43-.28.91-.476 1.412-.579a8.644 8.644 0 0 1 2.003-.193h2.398zm2.787 6.983V13.079a8.832 8.832 0 0 0-.324-2.5 4.335 4.335 0 0 0-1.036-1.798c-.473-.478-1.101-.845-1.872-1.094-.772-.249-1.704-.373-2.805-.373a9.142 9.142 0 0 0-1.748.161c-.542.097-1.076.233-1.599.405-.443.147-.873.33-1.287.545a3.58 3.58 0 0 0-.79.518.998.998 0 0 0-.292.473 2.753 2.753 0 0 0-.056.665c-.003.159.007.317.03.473.02.121.057.239.113.348a.65.65 0 0 0 .18.208c.07.044.153.065.236.062.137 0 .345-.075.622-.243.278-.168.622-.348 1.037-.547.465-.22.948-.401 1.443-.541a6.351 6.351 0 0 1 1.86-.249 4.984 4.984 0 0 1 1.636.23c.41.133.78.369 1.076.684.29.32.498.707.603 1.126a5.95 5.95 0 0 1 .186 1.568v1.192h-2.108a14.859 14.859 0 0 0-3.213.317c-.952.205-1.76.522-2.414.945a4.337 4.337 0 0 0-1.517 1.58c-.349.635-.53 1.38-.53 2.245-.01.677.122 1.348.387 1.97a4.068 4.068 0 0 0 1.07 1.462c.488.41 1.054.716 1.664.902.709.22 1.448.326 2.19.317a5.909 5.909 0 0 0 2.606-.597 7.622 7.622 0 0 0 2.24-1.659V23.4a.365.365 0 0 0 .119.305.87.87 0 0 0 .38.155c.234.04.47.056.708.05.234.004.467-.012.697-.05a.938.938 0 0 0 .373-.155.342.342 0 0 0 .137-.305z"/></g><g><path fill="#fff" d="M121.378 21.055c0 .193-.006.36-.018.504-.01.12-.029.238-.056.354-.026.089-.06.174-.104.255a1.705 1.705 0 0 1-.267.324 4.966 4.966 0 0 1-.726.529c-.362.22-.744.408-1.14.56a8.83 8.83 0 0 1-1.387.397 7.432 7.432 0 0 1-1.55.156c-1.1 0-2.072-.18-2.922-.547A5.478 5.478 0 0 1 111.074 22a7.36 7.36 0 0 1-1.312-2.568c-.299-1.02-.448-2.183-.448-3.514 0-1.506.185-2.8.554-3.882.367-1.088.87-1.97 1.511-2.662a5.927 5.927 0 0 1 2.264-1.542 7.702 7.702 0 0 1 2.811-.498c.479-.005.956.041 1.424.137.431.08.854.199 1.263.355.363.133.71.304 1.037.51.233.142.452.306.653.491.103.1.196.208.28.323.054.088.098.182.13.28.036.12.057.243.063.367.012.137.018.305.018.51 0 .442-.05.753-.15.927-.098.174-.23.261-.378.261-.168 0-.361-.093-.585-.28a9.009 9.009 0 0 0-.84-.615c-.386-.252-.8-.46-1.231-.622a4.74 4.74 0 0 0-1.71-.28c-1.35 0-2.385.518-3.104 1.555-.72 1.036-1.08 2.542-1.083 4.515a10.43 10.43 0 0 0 .287 2.592c.15.667.429 1.299.82 1.86.342.48.803.865 1.338 1.113a4.25 4.25 0 0 0 1.81.367c.58.01 1.157-.094 1.698-.305a7.518 7.518 0 0 0 1.269-.672c.354-.248.659-.466.901-.665.243-.2.43-.299.566-.299a.326.326 0 0 1 .208.069.505.505 0 0 1 .143.23c.047.133.077.273.087.414.019.195.027.39.025.585"/></g><g><path fill="#fff" d="M133.078 22.262c.002.263-.021.525-.069.783a.866.866 0 0 1-.207.423 1.337 1.337 0 0 1-.404.255 3.84 3.84 0 0 1-.622.2c-.236.043-.479.093-.74.124-.26.032-.522.048-.784.05a5.99 5.99 0 0 1-2.04-.311 3.281 3.281 0 0 1-1.393-.952 3.862 3.862 0 0 1-.79-1.617 9.322 9.322 0 0 1-.249-2.308V9.965h-2.146a.45.45 0 0 1-.404-.267c-.104-.187-.156-.48-.156-.89 0-.18.015-.362.044-.54.022-.127.06-.25.112-.368a.423.423 0 0 1 .423-.263h2.127V4.001a.36.36 0 0 1 .062-.224.456.456 0 0 1 .218-.175c.137-.063.285-.101.435-.111.225-.028.452-.04.678-.038.233-.003.466.01.697.038.149.01.294.048.429.111a.483.483 0 0 1 .218.175.415.415 0 0 1 .068.224v3.638h3.931a.43.43 0 0 1 .236.056.543.543 0 0 1 .18.207c.057.116.092.24.105.367.026.18.039.36.037.541-.007.415-.05.71-.156.89a.45.45 0 0 1-.404.267h-3.93v8.538c0 1.051.154 1.846.465 2.384.312.535.871.809 1.68.809.234.002.468-.023.697-.075.199-.056.385-.104.54-.162.156-.058.299-.112.415-.161a.675.675 0 0 1 .305-.081.369.369 0 0 1 .162.043c.058.038.1.096.118.162.038.105.063.213.075.324.027.168.04.339.037.51"/></g><g><path fill="#fff" d="M147.725 15.752c.008.818-.082 1.635-.267 2.432a5.438 5.438 0 0 1-.853 1.903 3.937 3.937 0 0 1-1.48 1.244c-.597.292-1.312.441-2.127.441-.891 0-1.648-.161-2.24-.485a3.915 3.915 0 0 1-1.442-1.312 5.561 5.561 0 0 1-.759-1.928 11.452 11.452 0 0 1-.23-2.364 9.529 9.529 0 0 1 .28-2.413 5.574 5.574 0 0 1 .858-1.918 3.91 3.91 0 0 1 1.468-1.25c.597-.292 1.304-.441 2.134-.441.897 0 1.641.161 2.245.485.584.306 1.078.76 1.43 1.318.367.597.624 1.254.76 1.94.152.773.227 1.559.223 2.346zm2.96-.188a11.825 11.825 0 0 0-.466-3.449 6.984 6.984 0 0 0-1.405-2.6 5.983 5.983 0 0 0-2.333-1.635c-.937-.374-2.034-.56-3.29-.56-1.306 0-2.445.205-3.42.628a6.507 6.507 0 0 0-2.439 1.762 7.463 7.463 0 0 0-1.462 2.712 11.647 11.647 0 0 0-.485 3.446 12.165 12.165 0 0 0 .454 3.47 6.935 6.935 0 0 0 1.4 2.6 6.05 6.05 0 0 0 2.332 1.636c.94.373 2.034.56 3.296.56 1.29.002 2.426-.212 3.409-.64a6.737 6.737 0 0 0 2.444-1.773 7.648 7.648 0 0 0 1.474-2.718c.339-1.115.505-2.274.492-3.438z"/></g><g><path fill="#fff" d="M163.772 9.082c-.006.249-.006.46-.019.628-.01.137-.033.272-.068.405a.651.651 0 0 1-.13.217.283.283 0 0 1-.208.075.941.941 0 0 1-.33-.075c-.13-.05-.28-.103-.441-.149-.162-.046-.349-.104-.554-.15a3.17 3.17 0 0 0-.665-.068 2.179 2.179 0 0 0-.83.174c-.314.14-.603.33-.858.56a7.27 7.27 0 0 0-.945 1.037c-.33.429-.69.958-1.089 1.58v10.071a.377.377 0 0 1-.062.224.58.58 0 0 1-.224.162 1.49 1.49 0 0 1-.423.104 7.058 7.058 0 0 1-.703.03 5.282 5.282 0 0 1-.678-.03 1.65 1.65 0 0 1-.435-.104.443.443 0 0 1-.218-.162.381.381 0 0 1-.062-.224V8.081a.437.437 0 0 1 .056-.23.425.425 0 0 1 .193-.168c.123-.058.256-.093.392-.104a8.037 8.037 0 0 1 1.25 0c.134.01.265.045.386.104a.52.52 0 0 1 .192.168.385.385 0 0 1 .063.23v2.226c.351-.53.746-1.03 1.18-1.494a6.525 6.525 0 0 1 1.044-.909c.298-.207.628-.362.977-.46.318-.084.647-.126.976-.124a5.04 5.04 0 0 1 1.642.273c.125.037.242.094.349.168a.51.51 0 0 1 .136.162c.025.063.045.128.063.193.016.115.026.232.03.348.007.156.013.361.013.622"/></g><g><path fill="#fff" d="M174.122 23.81l-2.043 5.631c-.068.18-.242.318-.518.415-.275.097-.697.143-1.262.143-.24.005-.479-.01-.716-.043a.983.983 0 0 1-.414-.144.365.365 0 0 1-.162-.273.88.88 0 0 1 .08-.404l2.116-5.325a.803.803 0 0 1-.293-.223.747.747 0 0 1-.186-.324L165.259 8.64a1.623 1.623 0 0 1-.137-.56.422.422 0 0 1 .137-.323.829.829 0 0 1 .441-.161c.272-.034.547-.049.821-.044.336 0 .604.012.796.025a1.8 1.8 0 0 1 .46.093.476.476 0 0 1 .25.2c.061.111.115.228.161.348l4.366 12.277h.05l4.217-12.346c.069-.218.156-.354.249-.415a.97.97 0 0 1 .435-.136c.275-.035.552-.05.83-.044.261-.004.524.01.783.044a.88.88 0 0 1 .448.161c.095.08.147.2.143.324a1.651 1.651 0 0 1-.104.51l-5.494 15.22z"/></g><g><path fill="#fff" d="M0 10.91V1.445h9.466v9.467z"/></g><g><path fill="#c80000" d="M12.9 10.91V1.445h9.466v9.467z"/></g><g><path fill="#c80000" d="M68.088 17.423V7.95h9.472v9.473z"/></g><g><path fill="#fff" d="M0 23.817v-9.473h9.466v9.473z"/></g><g><path fill="#fff" d="M12.9 23.817v-9.473h9.466v9.473z"/></g></g></g></g></svg>