<svg xmlns="http://www.w3.org/2000/svg" width="21" height="24" viewBox="0 0 21 24"><g><g><path d="M16.58 16.165c.018.018.027.031.027.04a1.3 1.3 0 0 1-.24.014c-.43 0-.983-.125-1.662-.375 1.036 0 1.661.107 1.875.321zm-8.651.214zm0 0c.134-.24.334-.611.602-1.111.5-.991.87-1.87 1.112-2.639.455.974 1.022 1.76 1.7 2.357.045.045.117.105.215.181.098.076.156.119.174.127-1.33.242-2.598.603-3.803 1.085zm1.66-8.88c.01-.008.014-.017.014-.026a.77.77 0 0 1 .174.482c0 .01.002.016.007.02.004.005.006.011.006.02 0 .01.005.018.014.027a.301.301 0 0 0-.054.107c-.062.357-.094.55-.094.576-.053.33-.085.527-.093.59-.117-.804-.108-1.393.026-1.768zM4.26 19.85zm0 0c.116-.269.337-.6.663-.992a7.635 7.635 0 0 1 1.172-1.125c-.76 1.196-1.37 1.902-1.835 2.116zm7.714-5.505c-.812-.661-1.464-1.724-1.955-3.188.107-.616.17-1.473.187-2.571v-.402a.349.349 0 0 0-.013-.107.29.29 0 0 0 .054-.107c.08-.42.04-.724-.121-.911-.107-.134-.263-.201-.469-.201h-.294c-.277 0-.465.179-.563.536-.116.446-.145 1.015-.087 1.707.058.692.194 1.404.409 2.136-.322 1.125-.786 2.295-1.393 3.51-.491 1-.969 1.879-1.433 2.638 0-.018-.01-.036-.027-.054-.08-.134-.183-.16-.308-.08-.76.402-1.348.832-1.768 1.292-.42.46-.67.869-.75 1.226-.036.232-.009.393.08.482.045.036.072.058.08.067l.322.16a.779.779 0 0 0 .375.094c.795 0 1.875-1.17 3.241-3.509 1.527-.526 3.277-.897 5.25-1.111a9.766 9.766 0 0 0 1.741.71c.599.178 1.112.267 1.54.267.58 0 .898-.17.951-.509v-.013l.027-.027c.01-.009.014-.018.014-.026.125-.268.116-.5-.027-.697-.268-.437-1.058-.656-2.37-.656-.519 0-1.041.031-1.568.094a10.19 10.19 0 0 1-1.125-.75zM1.714 22.286V1.714H12v5.572c0 .357.125.66.375.91s.554.375.91.375h5.572v13.715zm12-20.465zm0 0c.26.09.442.188.55.295l4.191 4.192c.108.107.206.29.295.549h-5.036zm1.768-.91c-.25-.25-.59-.465-1.018-.643C14.036.089 13.643 0 13.286 0h-12C.929 0 .625.125.375.375a1.24 1.24 0 0 0-.375.91v21.43c0 .356.125.66.375.91s.554.375.91.375h18c.358 0 .661-.125.911-.375s.375-.554.375-.91V7.284c0-.357-.089-.75-.267-1.178-.179-.429-.393-.768-.643-1.018z"/></g></g></svg>